<svg width="296" height="301" viewBox="0 0 296 301" fill="none" xmlns="http://www.w3.org/2000/svg">
<path d="M165.218 9.94128V19.8544L148 9.9131L147.921 9.9585L130.781 19.8544V9.94128L148 0L165.218 9.94128Z" fill="#B204AF"/>
<path d="M62.2211 49.5247V59.4378L51.0291 65.8994V72.422H42.4434V60.9436L62.2023 49.5356L62.2211 49.5247Z" fill="#B204AF"/>
<path d="M253.555 60.9436V72.422H244.969V65.8994L233.777 59.4378V49.5247L253.555 60.9436Z" fill="#B20476"/>
<path d="M62.2211 184.334V194.247L42.4434 182.828V171.35H51.0291V177.872L62.2211 184.334Z" fill="#B20476"/>
<path d="M165.22 223.917V233.831L148.001 243.772L130.939 233.921V224.008L148.001 233.859L148.08 233.813L165.22 223.917Z" fill="#7614DD"/>
<path d="M253.555 171.35V182.828L233.777 194.247V184.334L244.969 177.872V171.35H253.555Z" fill="#7614DD"/>
<path d="M253.555 72.4221V171.35H244.969V127.208H233.777V116.251H244.969V72.4221H253.555Z" fill="#652ECE" stroke="#AD97FF" stroke-width="0.313062" stroke-miterlimit="10"/>
<path d="M62.2213 72.3798V116.251H51.0293V65.926L62.2213 72.3798Z" fill="#DF22CA" stroke="#FCA1FF" stroke-width="0.313062" stroke-miterlimit="10"/>
<path d="M62.2213 127.208V171.378L51.0293 177.846V127.208H62.2213Z" fill="url(#paint0_linear_208_237)" stroke="#FA55FF" stroke-width="0.313062" stroke-miterlimit="10"/>
<path d="M148.078 220.89V233.813L148 233.859L130.938 224.008L62.2213 184.334L51.0293 177.872V177.846L62.2213 171.378V171.411L148 220.936L148.078 220.89Z" fill="#490078" stroke="#6A00C6" stroke-width="0.313062" stroke-miterlimit="10"/>
<path d="M244.502 177.846V177.872L233.31 184.334L164.75 223.918L147.609 233.813V220.89L233.31 171.411V171.389L244.502 177.846Z" fill="#3A0070" stroke="#6A00C6" stroke-width="0.313062" stroke-miterlimit="10"/>
<path d="M244.501 65.926V116.251H233.309V72.3939L244.501 65.926Z" fill="#42016D" stroke="#6A00C6" stroke-width="0.313062" stroke-miterlimit="10"/>
<path d="M244.971 65.8995V65.9261L233.779 72.394V72.3611L148 22.8363L147.975 22.8504L147.922 9.95849L148 9.91309L165.219 19.8544L233.779 59.4379L244.971 65.8995Z" fill="url(#paint1_linear_208_237)" stroke="#FA55FF" stroke-width="0.313062" stroke-miterlimit="10"/>
<path d="M147.975 22.8504L62.2213 72.3611V72.3799L51.0293 65.9261V65.8995L62.2213 59.4379L130.782 19.8544L147.922 9.9585L147.975 22.8504Z" fill="#F98CF4" stroke="#FFF0FF" stroke-width="0.313062" stroke-miterlimit="10"/>
<path d="M148 22.8362L147.975 22.8503L62.2207 72.361V171.411L148 220.935L148.078 220.89L233.779 171.411V72.361L148 22.8362ZM226.265 167.072L148.078 212.214L148 212.259L69.7342 167.072V76.6985L148 31.5127L148.011 31.519L226.265 76.6985V167.072Z" fill="#1D0026"/>
<path d="M83.9024 84.8805V158.879L69.7363 167.036V76.7112L83.9024 84.8805Z" fill="url(#paint2_linear_208_237)"/>
<path d="M148.08 195.856V212.214L148.002 212.259L69.7363 167.072V167.036L83.9024 158.879V158.893L148.002 195.902L148.08 195.856Z" fill="url(#paint3_linear_208_237)"/>
<path d="M226.265 167.055V167.072L148.078 212.214V195.856L212.099 158.893V158.882L226.265 167.055Z" fill="url(#paint4_linear_208_237)"/>
<path d="M226.266 76.7361V167.054L212.1 158.882V84.8882L226.266 76.7361Z" fill="#41016D"/>
<path d="M226.264 76.6986V76.7361L212.098 84.8883V84.8773L148.077 47.9157L148.01 31.519L226.264 76.6986Z" fill="url(#paint5_linear_208_237)"/>
<path d="M148.08 47.9158L148.002 47.8704L83.9024 84.8775V84.8806L69.7363 76.7112V76.6987L148.002 31.5129L148.013 31.5192L148.08 47.9158Z" fill="#FFE8FF"/>
<path d="M212.101 84.9226V158.893L148.08 195.856L148.002 195.901L83.9023 158.893V158.849L106.286 145.913C114.603 160.322 130.17 170.019 148.002 170.019C174.585 170.019 196.135 148.468 196.135 121.886C196.135 113.136 193.8 104.929 189.717 97.8583L212.101 84.9226Z" fill="url(#paint6_linear_208_237)"/>
<path d="M212.101 84.8774V84.9228L189.717 97.8585C181.401 83.4498 165.834 73.7527 148.002 73.7527C121.418 73.7527 99.8685 95.3024 99.8685 121.886C99.8685 130.636 102.204 138.843 106.286 145.914L83.9023 158.849V84.8774L148.002 47.8704L148.08 47.9158L212.101 84.8774Z" fill="url(#paint7_linear_208_237)"/>
<path d="M189.716 97.8584C181.399 83.4498 165.832 73.7527 148 73.7527C121.417 73.7527 99.8672 95.3023 99.8672 121.886C99.8672 130.636 102.203 138.843 106.285 145.913C114.601 160.322 130.168 170.019 148 170.019C174.584 170.019 196.134 148.468 196.134 121.886C196.134 113.136 193.798 104.929 189.716 97.8584ZM148 155.52C129.425 155.52 114.365 140.461 114.365 121.886C114.365 103.309 129.425 88.2506 148 88.2506C166.576 88.2506 181.634 103.309 181.634 121.886C181.634 140.461 166.576 155.52 148 155.52Z" fill="url(#paint8_linear_208_237)"/>
<path d="M148.001 88.2505C129.425 88.2505 114.365 103.309 114.365 121.886C114.365 140.461 129.425 155.52 148.001 155.52C166.576 155.52 181.634 140.461 181.634 121.886C181.634 103.309 166.576 88.2505 148.001 88.2505ZM171.407 127.13C169.015 137.852 159.445 145.87 148.001 145.87C134.755 145.87 124.017 135.132 124.017 121.886C124.017 108.64 134.755 97.9022 148.001 97.9022C159.445 97.9022 169.015 105.918 171.407 116.642H148.314V127.13H171.407Z" fill="url(#paint9_linear_208_237)"/>
<path d="M148.314 127.13H171.407C169.015 137.852 159.445 145.869 148.001 145.869C134.756 145.869 124.018 135.131 124.018 121.886C124.018 108.64 134.756 97.9021 148.001 97.9021C159.445 97.9021 169.015 105.918 171.407 116.642H148.314V127.13Z" fill="url(#paint10_linear_208_237)"/>
<path d="M148 130.165H170.513C170.874 129.182 171.174 128.169 171.406 127.13H148V130.165Z" fill="url(#paint11_linear_208_237)"/>
<path d="M126.207 124.921C126.207 111.675 136.945 100.937 150.191 100.937C157.523 100.937 164.086 104.228 168.485 109.413C164.274 102.511 156.676 97.9023 147.999 97.9023C134.754 97.9023 124.016 108.64 124.016 121.886C124.016 127.792 126.152 133.199 129.692 137.378C127.481 133.747 126.207 129.483 126.207 124.921Z" fill="url(#paint12_linear_208_237)"/>
<path d="M244.501 127.208V177.846L233.309 171.389V127.208H244.501Z" fill="#350067" stroke="#6A00C6" stroke-width="0.313062" stroke-miterlimit="10"/>
<path d="M62.2211 116.251V127.208H51.0291V171.35H42.4434V72.4221H51.0291V116.251H62.2211Z" fill="#F964D6" stroke="#FFDEED" stroke-width="0.156531" stroke-miterlimit="10"/>
<path d="M0 291.238V280.712C0 274.631 3.67182 271.738 13.8303 271.738C16.3394 271.738 18.9709 271.947 23.6829 272.493L23.5605 276.477C23.5605 277.399 22.7649 277.819 21.4799 277.651C19.4604 277.357 17.2574 277.106 15.0544 277.106C9.97494 277.106 8.62869 278.112 8.62869 281.341V290.567C8.62869 293.797 10.1585 294.761 15.0544 294.761C17.2574 294.761 19.3992 294.426 21.4799 294.132C22.7649 293.964 23.4993 294.384 23.4993 295.264L23.5605 299.416C19.4604 299.961 16.4618 300.213 13.7691 300.213C3.54945 300.213 0 297.235 0 291.238Z" fill="url(#paint13_linear_208_237)"/>
<path d="M58.6249 281.174V290.777C58.6249 296.69 54.3412 300.213 44.5498 300.213C34.6971 300.213 30.4746 296.69 30.4746 290.777V281.174C30.4746 275.093 34.8195 271.738 44.5498 271.738C54.1575 271.738 58.6249 275.093 58.6249 281.174ZM39.1033 280.796V291.071C39.1033 293.545 40.939 294.845 44.5498 294.845C48.0991 294.845 49.9962 293.545 49.9962 291.071V280.838C49.9962 278.406 48.1603 277.106 44.5498 277.106C40.878 277.106 39.1033 278.364 39.1033 280.796Z" fill="url(#paint14_linear_208_237)"/>
<path d="M93.0188 279.706V280.629C93.0188 283.48 90.8768 286.08 86.7767 287.506L96.3845 299.71H88.5514C87.3887 299.71 86.6543 299.458 86.1646 298.745L78.8212 289.184C78.0256 289.225 76.6182 289.225 75.3943 289.142V298.41C75.3943 299.248 74.7211 299.71 73.497 299.71H66.7656V271.99C72.5181 271.864 76.3123 271.78 78.3315 271.78C88.6738 271.78 93.0188 274.841 93.0188 279.706ZM75.3943 277.106V283.942C76.6794 284.025 77.475 284.067 78.3929 284.067C82.6766 284.067 84.3901 282.767 84.3901 280.67V280.083C84.3901 278.07 82.6766 276.98 78.4539 276.98C77.7197 276.98 76.3123 277.022 75.3943 277.106Z" fill="url(#paint15_linear_208_237)"/>
<path d="M129.736 282.977V289.309C129.736 296.103 124.656 300.213 113.274 300.213C109.541 300.213 105.257 300.087 101.83 299.919V271.99C105.196 271.906 109.724 271.78 113.947 271.78C124.228 271.78 129.736 275.932 129.736 282.977ZM110.459 277.106V294.803C111.805 294.887 112.784 294.929 113.702 294.929C118.414 294.929 121.107 293.084 121.107 289.561V282.767C121.107 278.783 118.414 277.064 113.702 277.064C112.601 277.064 111.499 277.064 110.459 277.106Z" fill="url(#paint16_linear_208_237)"/>
<path d="M166.512 299.71H158.985C157.884 299.71 157.21 299.332 156.966 298.577L155.497 294.342H143.992L142.523 298.577C142.278 299.332 141.605 299.71 140.443 299.71H133.16L144.787 272.241H154.885L166.512 299.71ZM145.522 289.393H153.967L149.744 277.022L145.522 289.393Z" fill="url(#paint17_linear_208_237)"/>
<path d="M198.333 279.706V280.629C198.333 283.48 196.191 286.08 192.091 287.506L201.699 299.71H193.866C192.703 299.71 191.969 299.458 191.479 298.745L184.136 289.184C183.34 289.225 181.933 289.225 180.709 289.142V298.41C180.709 299.248 180.036 299.71 178.812 299.71H172.08V271.99C177.833 271.864 181.627 271.78 183.646 271.78C193.988 271.78 198.333 274.841 198.333 279.706ZM180.709 277.106V283.942C181.994 284.025 182.789 284.067 183.707 284.067C187.991 284.067 189.705 282.767 189.705 280.67V280.083C189.705 278.07 187.991 276.98 183.768 276.98C183.034 276.98 181.627 277.022 180.709 277.106Z" fill="url(#paint18_linear_208_237)"/>
<path d="M213.876 272.241C215.1 272.241 215.773 272.702 215.773 273.541V299.71H207.145V272.241H213.876Z" fill="url(#paint19_linear_208_237)"/>
<path d="M251.818 290.735C251.818 296.648 247.596 300.213 237.988 300.213C228.564 300.213 224.219 296.732 224.219 290.777V272.241H230.95C232.174 272.241 232.847 272.702 232.847 273.541V291.071C232.847 293.545 234.683 294.845 237.988 294.845C241.354 294.845 243.189 293.545 243.189 291.071V273.541C243.189 272.702 243.863 272.241 245.025 272.241H251.818V290.735Z" fill="url(#paint20_linear_208_237)"/>
<path d="M289.698 299.71C288.474 299.71 287.862 299.29 287.801 298.409L287.433 282.767L282.783 295.474C282.538 296.187 281.865 296.564 280.763 296.564H275.194C274.093 296.564 273.419 296.187 273.175 295.474L268.524 282.767L268.218 298.409C268.157 299.29 267.545 299.71 266.321 299.71H260.018L260.385 272.241H269.319C270.421 272.241 271.094 272.576 271.4 273.331L278.07 290.567L284.741 273.373C285.047 272.577 285.72 272.241 286.76 272.241H295.572L296.001 299.71H289.698Z" fill="url(#paint21_linear_208_237)"/>
<defs>
<linearGradient id="paint0_linear_208_237" x1="57.4891" y1="119.923" x2="56.6543" y2="148.308" gradientUnits="userSpaceOnUse">
<stop stop-color="#DF22CA"/>
<stop offset="1" stop-color="#9726D3"/>
</linearGradient>
<linearGradient id="paint1_linear_208_237" x1="166.844" y1="26.7304" x2="241.144" y2="70.9765" gradientUnits="userSpaceOnUse">
<stop stop-color="#DF22CA"/>
<stop offset="1" stop-color="#9726D3"/>
</linearGradient>
<linearGradient id="paint2_linear_208_237" x1="77.7884" y1="155.997" x2="75.2839" y2="78.3577" gradientUnits="userSpaceOnUse">
<stop stop-color="#FF93F7"/>
<stop offset="1" stop-color="#ED58EA"/>
</linearGradient>
<linearGradient id="paint3_linear_208_237" x1="142.74" y1="198.276" x2="77.6229" y2="167.387" gradientUnits="userSpaceOnUse">
<stop stop-color="#AC0ECC"/>
<stop offset="1" stop-color="#66049D"/>
</linearGradient>
<linearGradient id="paint4_linear_208_237" x1="226.847" y1="157.828" x2="148.373" y2="204.578" gradientUnits="userSpaceOnUse">
<stop stop-color="#1E073F"/>
<stop offset="1" stop-color="#41016D"/>
</linearGradient>
<linearGradient id="paint5_linear_208_237" x1="208.929" y1="75.6728" x2="150.491" y2="39.775" gradientUnits="userSpaceOnUse">
<stop stop-color="#FF93F7"/>
<stop offset="1" stop-color="#ED58EA"/>
</linearGradient>
<linearGradient id="paint6_linear_208_237" x1="98.3733" y1="166.037" x2="211.91" y2="130.417" gradientUnits="userSpaceOnUse">
<stop stop-color="#C81ED0"/>
<stop offset="1" stop-color="#7F10C6"/>
</linearGradient>
<linearGradient id="paint7_linear_208_237" x1="110.692" y1="66.8308" x2="144.085" y2="116.086" gradientUnits="userSpaceOnUse">
<stop stop-color="#FF93F9"/>
<stop offset="1" stop-color="#CE2BD1"/>
</linearGradient>
<linearGradient id="paint8_linear_208_237" x1="99.8672" y1="121.886" x2="196.134" y2="121.886" gradientUnits="userSpaceOnUse">
<stop stop-color="#50004D"/>
<stop offset="1" stop-color="#3C0149"/>
</linearGradient>
<linearGradient id="paint9_linear_208_237" x1="130.686" y1="76.3224" x2="162.41" y2="159.806" gradientUnits="userSpaceOnUse">
<stop stop-color="#FFEEFF"/>
<stop offset="1" stop-color="#AC64FF"/>
</linearGradient>
<linearGradient id="paint10_linear_208_237" x1="147.712" y1="97.1367" x2="147.712" y2="147.227" gradientUnits="userSpaceOnUse">
<stop stop-color="#ED2467"/>
<stop offset="1" stop-color="#7E00F7"/>
</linearGradient>
<linearGradient id="paint11_linear_208_237" x1="159.656" y1="126.824" x2="159.74" y2="130.092" gradientUnits="userSpaceOnUse">
<stop stop-color="#50004D"/>
<stop offset="1" stop-color="#3C0149"/>
</linearGradient>
<linearGradient id="paint12_linear_208_237" x1="145.791" y1="97.8786" x2="146.696" y2="133.175" gradientUnits="userSpaceOnUse">
<stop stop-color="#50004D"/>
<stop offset="1" stop-color="#3C0149"/>
</linearGradient>
<linearGradient id="paint13_linear_208_237" x1="11.4786" y1="271.838" x2="12.5918" y2="303.005" gradientUnits="userSpaceOnUse">
<stop stop-color="#FBC9F7"/>
<stop offset="1" stop-color="#FAA4F6"/>
</linearGradient>
<linearGradient id="paint14_linear_208_237" x1="44.0034" y1="270.676" x2="45.1165" y2="301.843" gradientUnits="userSpaceOnUse">
<stop stop-color="#FBC9F7"/>
<stop offset="1" stop-color="#FAA4F6"/>
</linearGradient>
<linearGradient id="paint15_linear_208_237" x1="80.4916" y1="269.373" x2="81.6047" y2="300.541" gradientUnits="userSpaceOnUse">
<stop stop-color="#FBC9F7"/>
<stop offset="1" stop-color="#FAA4F6"/>
</linearGradient>
<linearGradient id="paint16_linear_208_237" x1="114.955" y1="268.143" x2="116.068" y2="299.31" gradientUnits="userSpaceOnUse">
<stop stop-color="#FBC9F7"/>
<stop offset="1" stop-color="#FAA4F6"/>
</linearGradient>
<linearGradient id="paint17_linear_208_237" x1="148.666" y1="266.938" x2="149.779" y2="298.105" gradientUnits="userSpaceOnUse">
<stop stop-color="#FBC9F7"/>
<stop offset="1" stop-color="#FAA4F6"/>
</linearGradient>
<linearGradient id="paint18_linear_208_237" x1="185.672" y1="265.617" x2="186.785" y2="296.784" gradientUnits="userSpaceOnUse">
<stop stop-color="#FBC9F7"/>
<stop offset="1" stop-color="#FAA4F6"/>
</linearGradient>
<linearGradient id="paint19_linear_208_237" x1="210.677" y1="264.724" x2="211.79" y2="295.891" gradientUnits="userSpaceOnUse">
<stop stop-color="#FBC9F7"/>
<stop offset="1" stop-color="#FAA4F6"/>
</linearGradient>
<linearGradient id="paint20_linear_208_237" x1="237.381" y1="263.77" x2="238.494" y2="294.937" gradientUnits="userSpaceOnUse">
<stop stop-color="#FBC9F7"/>
<stop offset="1" stop-color="#FAA4F6"/>
</linearGradient>
<linearGradient id="paint21_linear_208_237" x1="276.952" y1="262.357" x2="278.065" y2="293.524" gradientUnits="userSpaceOnUse">
<stop stop-color="#FBC9F7"/>
<stop offset="1" stop-color="#FAA4F6"/>
</linearGradient>
</defs>
</svg>
