<svg width="50" height="35" xmlns="http://www.w3.org/2000/svg" version="1.0">
  <g fill="#fff" id="svg_1" transform="matrix(0.00980826 0 0 -0.00961052 222.095 175.868)">
   <path d="m-20090.83,18031.14c4,-11 1796,-3117 1802,-3125c1,-2 84,139 184,312l182,315l-540,937c-298,515 -541,938 -541,940c0,2 161,3 358,2l357,-3l180,-312c99,-171 183,-308 187,-305c9,9 358,613 358,620c0,2 -81,146 -181,318l-181,314l-1085,0c-865,0 -1084,-3 -1080,-13z" id="svg_2"/>
   <path d="m-20826.83,18027.14c-133,-224 -1797,-3116 -1794,-3119c2,-2 490,-3 1085,-2l1082,3l-179,310l-179,310l-361,5l-361,5l356,618c197,340 361,614 365,610c4,-4 248,-424 542,-933l534,-925l363,-3c341,-2 362,-1 356,15c-11,27 -1777,3086 -1791,3101c-7,8 -15,10 -18,5z" id="svg_3"/>
  </g>
</svg>