<?xml version="1.0" encoding="UTF-8"?><svg id="a" xmlns="http://www.w3.org/2000/svg" viewBox="0 0 1333.94 325.52"><polygon points="19.5 91.72 139.16 22.56 258.23 92.17 258.23 233.28 138.79 302.94 19.5 233.06 19.5 91.72" style="fill:none; stroke:#fff; stroke-miterlimit:10; stroke-width:39px;"/><path d="M61.39,205.4c5.79,3.66,11.57,7.32,17.36,10.98,6.24-3.33,12.48-6.67,18.72-10v-71.38c8.33-4.02,16.67-8.04,25-12.06v119.05l18.39,10.59,15.51-9.32V121.4l24.45,13.79v70.98l17.49,10.28,18-9.19,.45-91.21-77.68-45.06L61.39,116.55v88.85Z" style="fill:#fff; stroke:#fff; stroke-miterlimit:10; stroke-width:4px;"/><text transform="translate(327.03 211.43)" style="fill:#fff; font-family:FranklinGothic-Heavy, Franklin Gothic Heavy; font-size:160px;"><tspan x="0" y="0" style="letter-spacing:.09em;">MIN</tspan><tspan x="338.34" y="0" style="letter-spacing:.11em;">E</tspan><tspan x="448.41" y="0" style="letter-spacing:.1em;">S</tspan><tspan x="560.8" y="0" style="letter-spacing:.08em;">T</tspan><tspan x="649.59" y="0" style="letter-spacing:.09em;">O</tspan><tspan x="774.17" y="0" style="letter-spacing:.08em;">R</tspan><tspan x="897.71" y="0" style="letter-spacing:.1em;">E</tspan></text></svg>